<svg enable-background="new 0 0 329 287" viewBox="0 0 329 287" xmlns="http://www.w3.org/2000/svg"><g transform="translate(0 243)"><path d="m324 44h-319c-2.8 0-5-2.2-5-5v-46h329v46c0 2.8-2.2 5-5 5zm-322-49v44c0 1.7 1.3 3 3 3h319c1.7 0 3-1.3 3-3v-44z"/><path d="m4-5h14c1.1 0 2 .9 2 2v14c0 1.1-.9 2-2 2h-14c-1.1 0-2-.9-2-2v-14c0-1.1.9-2 2-2z" transform="translate(15 14)"/><path d="m42 16h70v6h-70z"/><path d="m294 16h18v6h-18z"/><path d="m279 13h12v12h-12z"/><path d="m236 13h12v12h-12z"/><path d="m251 16h18v6h-18z"/><path d="m193 13h12v12h-12z"/><path d="m208 16h18v6h-18z"/></g><path d="m86 53h-81c-2.8 0-5 2.2-5 4.9v180.1h329v-180.1c0-2.7-2.2-4.9-5-4.9-79.3 0-158.7 0-238 0v1.9h238c1.7 0 3 1.3 3 3v178.1h-325v-178.1c0-1.6 1.3-3 3-3h81"/><path clip-rule="evenodd" d="m202 126c-6.1 0-11-4.9-11-11s4.9-11 11-11 11 4.9 11 11-4.9 11-11 11zm-75 0c-6.1 0-11-4.9-11-11s4.9-11 11-11 11 4.9 11 11-4.9 11-11 11zm11 53.5c0-1.9 1.6-3.5 3.5-3.5h50c1.9 0 3.5 1.6 3.5 3.5s-1.6 3.5-3.5 3.5h-50c-1.9 0-3.5-1.6-3.5-3.5z" fill-rule="evenodd"/></svg>