<svg enable-background="new 0 0 329 287" viewBox="0 0 329 287" xmlns="http://www.w3.org/2000/svg"><path d="m324 44h-319c-2.8 0-5-2.2-5-5v-46h329v46c0 2.8-2.2 5-5 5zm-322-49v44c0 1.7 1.3 3 3 3h319c1.7 0 3-1.3 3-3v-44z" transform="translate(0 243)"/><path d="m4-5h14c1.1 0 2 .9 2 2v14c0 1.1-.9 2-2 2h-14c-1.1 0-2-.9-2-2v-14c0-1.1.9-2 2-2z" transform="translate(15 257)"/><path d="m42 259h70v6h-70z"/><path d="m294 259h18v6h-18z"/><path d="m279 256h12v12h-12z"/><path d="m236 256h12v12h-12z"/><path d="m251 259h18v6h-18z"/><path d="m193 256h12v12h-12z"/><path d="m208 259h18v6h-18z"/><path d="m324 53h-77c-.6 0-1.1.6-.9 1.2.1.4.5.7.9.7h77c1.7 0 3 1.3 3 3v178.1h-325v-178.1c0-1.6 1.3-3 3-3h81c.5 0 .8-.3.9-.7.2-.6-.3-1.2-.9-1.2h-81c-2.8 0-5 2.2-5 4.9v180.1h329v-180.1c0-2.7-2.2-4.9-5-4.9z"/><g transform="translate(60 5)"><path d="m39 97c43.6 13.3 90.4 13.3 134 0v-18h-134z"/><path d="m173 61.4c0-36.6-30.1-66.4-67-66.4s-67 29.8-67 66.4v12.6h134z"/><path d="m156.3 206c-5.4-2-9.1-6.5-10-11.2-.2-.6-.2-1.2-.3-1.8l-.1-.4v-.2l-.1-.4-.3-1.6-.4-1.6c-.1-.5-.4-1-.5-1.6-.4-1-.7-2.1-1.3-3.1-2-4.1-5.1-7.8-9-10.6s-8.6-4.6-13.7-5.3c-5-.6-10.3 0-15.3 1.9-.1.1-.2.1-.3.2-.1-.1-.2-.1-.3-.2-4.9-1.9-10.3-2.5-15.3-1.9s-9.7 2.5-13.7 5.3c-3.9 2.8-7 6.5-9 10.6-.6 1-.9 2.1-1.3 3.1-.2.5-.4 1-.5 1.6l-.4 1.6-.3 1.6-.1.4v.2l-.1.4c-.1.6-.1 1.2-.3 1.8-.9 4.8-4.6 9.3-10 11.2-2.7 1-5.7 1.3-8.8.9s-6.1-1.7-8.9-3.6c2 2.6 4.7 5 8 6.5 3.2 1.6 7 2.4 10.8 2.2s7.7-1.3 11.2-3.4 6.6-5.1 8.8-8.8c.6-.9 1-1.9 1.5-2.8l.3-.7.2-.4.1-.2.5-.8.4-.7c.2-.2.4-.4.5-.7.4-.4.7-.9 1.1-1.2 1.5-1.5 3.4-2.5 5.2-2.9 1.2-.3 2.7-.2 4.2.1 5.2 1 10.7-.1 14.8-3.5.5-.4.9-.7 1.2-1.1l.2-.2.2.2c.3.3.7.7 1.2 1.1 4.1 3.3 9.6 4.5 14.8 3.5 1.5-.3 3-.4 4.2-.1 1.8.5 3.7 1.4 5.2 2.9.5.3.7.8 1.1 1.2.2.2.4.4.5.7l.4.7.5.8.1.2.2.4.3.7c.5 1 .9 1.9 1.5 2.8 2.2 3.7 5.3 6.7 8.8 8.8s7.4 3.2 11.2 3.4 7.6-.6 10.8-2.2 5.9-3.9 8-6.5c-2.7 1.9-5.8 3.2-8.9 3.6-3 .5-6.1.1-8.8-.9z"/><path d="m122.5 131.6c-.5 0-.9 0-1.4.1-.1.7-.1 1.5-.1 2.2 0 14.2 11.4 25.8 25.5 25.8 7.1 0 13.6-3 18.2-7.8v42.5c0 2 1.6 3.7 3.6 3.7s3.6-1.6 3.6-3.7v-60.4c0-3.9-.9-7.6-2.4-10.9-.4.1-.9.3-1.3.4-2.9.8-5.8 1.6-8.8 2.3 1.5 2.4 2.4 5.2 2.4 8.2 0 8.5-6.9 15.5-15.3 15.5s-15.3-6.9-15.3-15.5c0-1.1.1-2.2.3-3.2-3 .3-6 .6-9 .8z"/><path d="m207.4 96.4c-1.6-3.7-6-5.5-9.8-3.8-58.8 25-126.3 25-185.1 0-1-.4-2-.6-3-.6-2.9 0-5.7 1.7-6.9 4.4-.8 1.8-.8 3.8-.1 5.6s2.2 3.3 4 4c31.2 13.3 64.3 20 98.5 20s67.3-6.7 98.5-19.9c1.8-.8 3.3-2.2 4-4 .7-1.9.7-3.9-.1-5.7z"/></g></svg>